<svg data-v-423bf9ae="" xmlns="http://www.w3.org/2000/svg" viewBox="0 0 322.60786303079334 60" class="font"><!----><!----><!----><g data-v-423bf9ae="" id="363246c9-da65-4c50-bc92-966416264f4f" fill="black" transform="matrix(5.752636432647705,0,0,5.752636432647705,0.6327872276306152,-3.85426664352417)"><path d="M7.97 5.91L7.97 6.90Q7.97 6.97 7.97 7.04Q7.97 7.11 7.95 7.18L7.95 7.18L7.95 11.09L5.78 11.09L5.78 10.56Q5.36 10.81 4.89 10.96Q4.42 11.10 3.93 11.10L3.93 11.10L3.92 11.10Q3.09 11.10 2.36 10.78Q1.62 10.46 1.05 9.86L1.05 9.86Q0.50 9.27 0.20 8.53Q-0.10 7.80-0.11 6.99L-0.11 6.99L-0.11 4.83Q-0.11 3.99 0.19 3.25Q0.49 2.51 1.05 1.92L1.05 1.92Q1.62 1.32 2.36 0.99Q3.09 0.67 3.92 0.67L3.92 0.67L3.93 0.67Q4.75 0.67 5.48 0.99Q6.22 1.32 6.80 1.92L6.80 1.92Q7.36 2.52 7.67 3.28Q7.97 4.03 7.97 4.87L7.97 4.87L5.61 4.87Q5.61 4.49 5.48 4.16Q5.35 3.82 5.12 3.57Q4.89 3.32 4.58 3.17Q4.27 3.02 3.92 3.02L3.92 3.02Q3.57 3.02 3.27 3.17Q2.97 3.32 2.74 3.57Q2.51 3.82 2.37 4.16Q2.24 4.49 2.24 4.87L2.24 4.87L2.24 6.90Q2.24 7.28 2.37 7.62Q2.51 7.95 2.74 8.20Q2.97 8.46 3.27 8.60Q3.57 8.75 3.92 8.75L3.92 8.75Q4.33 8.75 4.66 8.57Q4.98 8.39 5.22 8.08L5.22 8.08L3.91 8.08L3.91 5.91L7.97 5.91ZM15.72 11.09L13.30 11.09L11.48 7.14L11.45 7.14L11.45 11.09L9.10 11.09L9.10 0.67L12.26 0.67L12.28 0.67Q12.95 0.67 13.54 0.92Q14.14 1.18 14.58 1.62Q15.02 2.06 15.27 2.65Q15.53 3.23 15.53 3.91L15.53 3.91Q15.53 4.86 15.04 5.62Q14.55 6.38 13.75 6.79L13.75 6.79L15.72 11.09ZM23.27 11.09L23.27 11.09L21.87 7.06L19.94 7.06L18.54 11.09L16.00 11.09L19.61 0.67L22.19 0.67L25.80 11.09L23.27 11.09ZM32.91 3.02L32.91 3.02L28.88 3.02L28.88 4.70L31.85 4.70L31.85 7.06L28.88 7.06L28.88 11.09L26.53 11.09L26.53 0.67L32.91 0.67L32.91 3.02ZM40.21 3.02L40.21 3.02L36.18 3.02L36.18 4.70L39.14 4.70L39.14 7.06L36.18 7.06L36.18 8.74L40.21 8.74L40.21 11.09L33.82 11.09L33.82 0.67L40.21 0.67L40.21 3.02ZM46.47 0.67L46.47 0.67L48.82 0.67L48.82 11.09L46.44 11.09L43.50 5.26L43.50 11.09L41.15 11.09L41.15 0.67L43.54 0.67L46.47 6.48L46.47 0.67ZM55.97 3.02L55.97 3.02L51.94 3.02L51.94 4.70L54.91 4.70L54.91 7.06L51.94 7.06L51.94 8.74L55.97 8.74L55.97 11.09L49.59 11.09L49.59 0.67L55.97 0.67L55.97 3.02Z"></path></g><!----><!----></svg>